<svg width="279" height="199" viewBox="0 0 279 199" fill="none" xmlns="http://www.w3.org/2000/svg">
<path d="M300 -42.7334C304.722 -42.7334 308.681 -44.3306 311.875 -47.525C315.069 -50.7195 316.667 -54.6778 316.667 -59.4C316.667 -64.1222 315.069 -68.0806 311.875 -71.275C308.681 -74.4695 304.722 -76.0667 300 -76.0667C295.278 -76.0667 291.319 -74.4695 288.125 -71.275C284.931 -68.0806 283.333 -64.1222 283.333 -59.4C283.333 -54.6778 284.931 -50.7195 288.125 -47.525C291.319 -44.3306 295.278 -42.7334 300 -42.7334V-42.7334M233.333 -42.7334C238.056 -42.7334 242.014 -44.3306 245.208 -47.525C248.403 -50.7195 250 -54.6778 250 -59.4C250 -64.1222 248.403 -68.0806 245.208 -71.275C242.014 -74.4695 238.056 -76.0667 233.333 -76.0667C228.611 -76.0667 224.653 -74.4695 221.458 -71.275C218.264 -68.0806 216.667 -64.1222 216.667 -59.4C216.667 -54.6778 218.264 -50.7195 221.458 -47.525C224.653 -44.3306 228.611 -42.7334 233.333 -42.7334V-42.7334M225 13.9333H308.333C308.333 4.21108 304.097 -3.49724 295.625 -9.19169C287.153 -14.8861 277.5 -17.7334 266.667 -17.7334C255.833 -17.7334 246.181 -14.8861 237.708 -9.19169C229.236 -3.49724 225 4.21108 225 13.9333V13.9333M100 198.933C72.2222 198.933 48.6111 189.211 29.1667 169.767C9.72222 150.322 0 126.711 0 98.9333V-17.7334H200V98.9333C200 126.711 190.278 150.322 170.833 169.767C151.389 189.211 127.778 198.933 100 198.933V198.933M100 165.6C118.333 165.6 134.028 159.072 147.083 146.017C160.139 132.961 166.667 117.267 166.667 98.9333V15.6H33.3333V98.9333C33.3333 117.267 39.8611 132.961 52.9167 146.017C65.9722 159.072 81.6667 165.6 100 165.6V165.6M266.667 82.2666C259.444 82.2666 252.292 81.5028 245.208 79.975C238.125 78.4472 231.389 76.1555 225 73.1V33.9333C231.111 38.6555 237.708 42.3361 244.792 44.975C251.875 47.6139 259.167 48.9333 266.667 48.9333C285 48.9333 300.694 42.4055 313.75 29.35C326.806 16.2944 333.333 0.599974 333.333 -17.7334V-101.067H200V-42.7334H166.667V-134.4H366.667V-17.7334C366.667 10.0444 356.944 33.6555 337.5 53.1C318.056 72.5444 294.444 82.2666 266.667 82.2666V82.2666M66.6667 73.9333C71.3889 73.9333 75.3472 72.3361 78.5417 69.1416C81.7361 65.9472 83.3333 61.9889 83.3333 57.2666C83.3333 52.5444 81.7361 48.5861 78.5417 45.3916C75.3472 42.1972 71.3889 40.6 66.6667 40.6C61.9444 40.6 57.9861 42.1972 54.7917 45.3916C51.5972 48.5861 50 52.5444 50 57.2666C50 61.9889 51.5972 65.9472 54.7917 69.1416C57.9861 72.3361 61.9444 73.9333 66.6667 73.9333V73.9333M133.333 73.9333C138.056 73.9333 142.014 72.3361 145.208 69.1416C148.403 65.9472 150 61.9889 150 57.2666C150 52.5444 148.403 48.5861 145.208 45.3916C142.014 42.1972 138.056 40.6 133.333 40.6C128.611 40.6 124.653 42.1972 121.458 45.3916C118.264 48.5861 116.667 52.5444 116.667 57.2666C116.667 61.9889 118.264 65.9472 121.458 69.1416C124.653 72.3361 128.611 73.9333 133.333 73.9333V73.9333M100 130.6C110.833 130.6 120.486 127.753 128.958 122.058C137.431 116.364 141.667 108.656 141.667 98.9333H58.3333C58.3333 108.656 62.5694 116.364 71.0417 122.058C79.5139 127.753 89.1667 130.6 100 130.6V130.6M100 90.6V90.6V90.6V90.6V90.6V90.6V90.6V90.6V90.6M266.667 -26.0667V-26.0667V-26.0667V-26.0667V-26.0667V-26.0667V-26.0667V-26.0667V-26.0667V-26.0667V-26.0667V-26.0667V-26.0667V-26.0667V-26.0667V-26.0667V-26.0667" fill="#85332A"/>
</svg>
